# xmcd
#
# Track frame offsets:
# 150
# 13750
# 31660
# 46518
# 60418
# 74518
# 87378
#
# Disc length: 1345 seconds
#
#
# Revision: 0
# Processed by: cddbd v1.5.2PL0 Copyright (c) Steve Scherf et al.
# Submitted via: FreeRIP 2.945 
#
DISCID=4d053f07
DTITLE=Jorge e Mateus - Pelo Amor de Deus
DYEAR=2007
DGENRE=sertanejo
TTITLE0=jorge e mateus - querendo te amar
TTITLE1=jorge e mateus - castigo
TTITLE2=jorge e mateus - fogueira
TTITLE3=jorge e mateus - traz ela de volta pra mim
TTITLE4=jorge e mateus - querendo te amar (ao vivo)
TTITLE5=jorge e mateus - fogueira (ao vivo)
TTITLE6=jorge e mateus - pelo amor de Deus-querendo te amar
EXTD=Aurora fm - Nova Aurora - Paraná
EXTT0=
EXTT1=
EXTT2=
EXTT3=
EXTT4=
EXTT5=
EXTT6=
PLAYORDER=
